<svg width="177" height="58" viewBox="0 0 177 58" fill="none" xmlns="http://www.w3.org/2000/svg">
<g clip-path="url(#clip0_1_1336)">
<path d="M59.8264 32.2917V33.8208H56.7426V35.4249H64.7717V33.8208H61.7053V32.2917H59.8264Z" fill="white"/>
<path d="M65.9547 32.5694V43.4714H67.8032V38.6329H69.6779V36.9848H67.8032V32.5694H65.9547Z" fill="white"/>
<path d="M93.243 32.5782V47.7017H95.1263V32.5782H93.243Z" fill="white"/>
<path d="M144.501 32.5782V47.6973H146.319V38.6637H147.437V47.7017H149.285V32.5782H147.437V36.9848H146.319V32.5782H144.501Z" fill="white"/>
<path d="M159.898 32.5738V41.6294H161.747V37.8617H163.839V36.2137H161.747V32.5738H159.898Z" fill="white"/>
<path d="M57.3864 37.8045C57.3864 39.5583 58.8869 40.9904 60.7354 40.9904C62.5839 40.9904 64.0845 39.5583 64.0845 37.8045C64.0845 36.0506 62.5839 34.6185 60.7354 34.6185C58.8869 34.6185 57.3864 36.0462 57.3864 37.8045ZM59.2088 37.8045C59.2088 36.9231 59.8916 36.2049 60.7311 36.2049C61.5705 36.2049 62.2577 36.9231 62.2577 37.8045C62.2577 38.6858 61.5705 39.4041 60.7311 39.4041C59.8916 39.4041 59.2088 38.6858 59.2088 37.8045Z" fill="white"/>
<path d="M154.065 32.2917V33.8208H150.982V35.4249H159.011V33.8208H155.949V32.2917H154.065Z" fill="white"/>
<path d="M151.621 37.8045C151.621 39.5583 153.122 40.9904 154.97 40.9904C156.819 40.9904 158.319 39.5583 158.319 37.8045C158.319 36.0506 156.814 34.6185 154.97 34.6185C153.126 34.6185 151.621 36.0462 151.621 37.8045ZM153.444 37.8045C153.444 36.9231 154.131 36.2049 154.97 36.2049C155.81 36.2049 156.492 36.9231 156.492 37.8045C156.492 38.6858 155.81 39.4041 154.97 39.4041C154.131 39.4041 153.444 38.6858 153.444 37.8045Z" fill="white"/>
<path d="M102.229 32.3975V33.6931C102.229 33.6931 97.7621 36.412 97.6838 36.4604C97.723 36.5354 98.3101 37.7163 98.3536 37.8045C98.8147 37.5445 103.029 35.1296 103.129 35.0768L103.151 35.0635L103.173 35.0724C103.273 35.1252 107.492 37.5401 107.948 37.8001C107.992 37.7163 108.583 36.5309 108.623 36.456C108.544 36.4076 104.077 33.6887 104.077 33.6887V32.3931H102.229V32.3975Z" fill="white"/>
<path d="M170.467 38.5316V43.4361H168.971V38.5316H167.122V43.4361H164.243V45.0842H176.996V43.4361H172.311V38.5316H170.463H170.467Z" fill="white"/>
<path d="M59.2044 42.7487V46.3357C59.2044 46.8777 59.7829 47.4858 60.5571 47.4858H67.9642V45.8378H61.1182V42.7487H59.2044Z" fill="white"/>
<path d="M96.5791 38.6064V40.2193H102.229V41.1447H98.7146V42.6385H105.648V43.6344H98.7146V46.3313C98.7146 46.8733 99.2888 47.4814 100.063 47.4814H107.848V45.9523H100.807V45.0357H107.527V41.1447H104.073V40.2193H109.727V38.6064H96.5791Z" fill="white"/>
<path d="M165.744 33.2216V34.8696H173.529V42.0568H175.338V34.3717C175.338 33.8297 174.76 33.226 173.986 33.226H165.744V33.2216Z" fill="white"/>
<path d="M116.486 38.5316V43.4361H114.99V38.5316H113.142V43.4361H110.267V45.0842H123.019V43.4361H118.339V38.5316H116.491H116.486Z" fill="white"/>
<path d="M111.767 33.2216V34.8696H119.553V42.0568H121.362V34.3717C121.362 33.8297 120.784 33.226 120.009 33.226H111.772L111.767 33.2216Z" fill="white"/>
<path d="M72.2919 32.8999V34.5479H79.5206V38.4919H70.539V40.1399H75.9758V42.189H72.3397V43.8371H79.5424V47.7678H81.3909V43.3391C81.3865 42.7971 80.808 42.189 80.0338 42.189H77.8504V40.1399H83.3046V38.4919H81.3648V34.0456C81.3648 33.5036 80.7863 32.8954 80.0121 32.8954H72.2875L72.2919 32.8999Z" fill="white"/>
<path d="M138.029 33.2216V41.5986C138.029 42.1406 138.608 42.7487 139.382 42.7487H144.614V41.0698H139.878V34.9049H143.279V33.226H138.029V33.2216Z" fill="white"/>
<path d="M123.841 39.2631V40.8759H127.447V42.4226H125.799V44.0354H132.962V47.7678H134.811V43.5683C134.811 43.0263 134.232 42.4226 133.462 42.4226H132.949V40.8759H136.589V39.2631H123.846H123.841ZM129.295 40.8759H131.096V42.4226H129.295V40.8759Z" fill="white"/>
<path d="M161.747 43.63C161.747 43.088 161.146 42.4843 160.372 42.4843H153.374V44.1324H159.898V47.7723H161.747V43.63Z" fill="white"/>
<path d="M126.66 35.4072C126.66 37.2624 128.252 38.7739 130.2 38.7739C132.149 38.7739 133.741 37.2624 133.741 35.4072C133.741 33.5521 132.153 32.0406 130.2 32.0406C128.247 32.0406 126.66 33.5521 126.66 35.4072ZM128.517 35.4072C128.517 34.4334 129.274 33.6402 130.2 33.6402C131.127 33.6402 131.883 34.4334 131.883 35.4072C131.883 36.3811 131.127 37.1743 130.2 37.1743C129.274 37.1743 128.517 36.3811 128.517 35.4072Z" fill="white"/>
<path d="M91.0336 37.9455V34.4995C91.0336 33.9575 90.4551 33.3494 89.6809 33.3494H84.3398V35.0283H89.1242V37.9587C89.1242 37.9587 84.6573 42.4975 84.5877 42.568L85.836 43.7931L90.6725 38.8224C90.8944 38.5977 91.0336 38.2848 91.0379 37.9367L91.0336 37.9455Z" fill="white"/>
<path d="M0 0V4.23477H16.7192V22.6104C14.9968 20.8962 13.0831 18.9837 12.5351 18.4373V8.47394H8.35525V20.2132L15.21 27.0479L8.97722 33.2656L8.35525 33.8869V50.5792C9.12945 51.205 9.93409 51.8131 10.7605 52.3948C11.3477 52.8046 11.9348 53.2012 12.5351 53.5846V35.6584C13.0831 35.1164 14.9968 33.2039 16.7192 31.4897V55.9994C17.2194 56.2638 17.7196 56.5194 18.2198 56.7617C19.0809 57.1848 19.9813 57.5814 20.899 57.978V0H0Z" fill="url(#paint0_linear_1_1336)"/>
<path d="M10.182 27.0302C10.182 27.0302 5.14537 22.0419 4.1798 21.0857V8.47394H0V22.8704C0 22.8704 2.70534 25.5496 4.2059 27.0346C2.70534 28.5241 0 31.1989 0 31.1989V41.343C0.952525 42.8853 2.08338 44.4056 3.37951 45.8642C3.63612 46.155 3.90579 46.4414 4.1798 46.7323V32.9836C5.14537 32.0273 10.182 27.0346 10.182 27.0346V27.0302Z" fill="url(#paint1_linear_1_1336)"/>
<path d="M36.9962 33.2656L30.7678 27.0479L37.6182 20.2132V8.47394H33.4427V18.4373C32.8947 18.9837 30.981 20.8918 29.2586 22.6104V4.23477H45.9778V0H25.0788V58C26.0139 57.599 26.923 57.1892 27.7928 56.7662C28.293 56.5194 28.7802 56.2726 29.2586 56.0214V31.4853C30.981 33.1995 32.8904 35.112 33.4427 35.654V53.6022C34.0517 53.21 34.6606 52.8046 35.2652 52.386C36.0742 51.8131 36.8657 51.2138 37.6225 50.6013V33.8781L37.0006 33.2568L36.9962 33.2656Z" fill="url(#paint2_linear_1_1336)"/>
<path d="M36.9962 33.2656L30.7678 27.0479L37.6182 20.2132V8.47394H33.4427V18.4373C32.8947 18.9837 30.981 20.8918 29.2586 22.6104V4.23477H45.9778V0H25.0788V58C26.0139 57.599 26.923 57.1892 27.7928 56.7662C28.293 56.5194 28.7802 56.2726 29.2586 56.0214V31.4853C30.981 33.1995 32.8904 35.112 33.4427 35.654V53.6022C34.0517 53.21 34.6606 52.8046 35.2652 52.386C36.0742 51.8131 36.8657 51.2138 37.6225 50.6013V33.8781L37.0006 33.2568L36.9962 33.2656Z" fill="url(#paint3_linear_1_1336)"/>
<path d="M41.7763 27.0303C43.2725 25.5452 45.9778 22.866 45.9778 22.866V8.46954H41.798V21.0813C40.8324 22.0375 35.7958 27.0258 35.7958 27.0258C35.7958 27.0258 40.8324 32.0141 41.798 32.9748V46.7675C42.0851 46.4679 42.3591 46.1682 42.6288 45.8642C43.8988 44.432 45.0209 42.9294 45.9778 41.3959V31.1945C45.9778 31.1945 43.2725 28.5153 41.7763 27.0303Z" fill="url(#paint4_linear_1_1336)"/>
<path d="M125.872 8.52698V11.8584H129.857V27.5548H133.119V11.8584H137.024V8.52698H125.877H125.872Z" fill="#F7941D"/>
<path d="M139.09 8.52679V27.5546H149.638V24.2452H142.352V19.2129H148.076V15.9123H142.352V11.8582H149.638V8.52679H139.09Z" fill="#F7941D"/>
<path d="M158.967 8.52682H155.148C153.3 8.52682 151.795 10.0647 151.795 11.9508V24.1263C151.795 26.1093 153.209 27.5502 155.148 27.5502H158.967C160.829 27.5502 162.347 26.0123 162.347 24.1263V22.2755H159.054V23.9324C159.054 24.1615 158.841 24.2408 158.698 24.2408H155.418C155.257 24.2408 155.057 24.0249 155.057 23.8002V12.1887C155.057 12.083 155.135 11.8538 155.366 11.8538H158.698C158.737 11.8538 159.054 11.8626 159.054 12.1358V13.7927H162.347V11.942C162.347 10.0559 160.829 8.51801 158.967 8.51801V8.52682Z" fill="#F7941D"/>
<path d="M175.217 8.52679H172.116V15.9123H168.118V8.52679H164.856V27.5546H168.118V19.2173H172.116V27.5546H175.408V8.52679H175.217Z" fill="#F7941D"/>
<path d="M118.687 8.52679H114.868C113.02 8.52679 111.515 10.0647 111.515 11.9507V27.5502H114.781V20.8213H118.779V27.5502H122.067V11.9507C122.067 10.0647 120.549 8.52679 118.692 8.52679H118.687ZM118.774 17.5163H114.777V12.1358C114.777 11.867 115.095 11.8582 115.129 11.8582H118.413C118.413 11.8582 118.77 11.8582 118.77 12.1358V17.5163H118.774Z" fill="white"/>
<path d="M64.8804 8.52681V12.3562C64.7978 12.4399 61.888 15.3923 60.8833 16.4059V8.52681H57.6256V27.5502H60.8833V18.7634C61.5836 19.4685 63.1798 21.0769 63.1798 21.0769C63.1798 21.0769 64.7804 22.6897 64.8804 22.7955V27.5458H68.1729V21.4558C68.1729 21.4558 64.5847 17.816 64.3324 17.5604C64.589 17.3092 68.1729 13.6958 68.1729 13.6958V8.5224H64.8804V8.52681Z" fill="white"/>
<path d="M78.3767 8.52679H74.5579C72.7094 8.52679 71.2088 10.0647 71.2088 11.9507V24.1218C71.2088 26.1048 72.618 27.5458 74.5579 27.5458H78.3767C80.2382 27.5458 81.7518 26.0079 81.7518 24.1218V11.9507C81.7518 10.0647 80.2382 8.52679 78.3767 8.52679ZM78.468 23.9368C78.468 24.1615 78.2549 24.2452 78.107 24.2452H74.8276C74.671 24.2452 74.4709 24.0293 74.4709 23.8002V12.1931C74.4709 12.0521 74.5666 11.8582 74.7754 11.8582H78.107C78.1462 11.8582 78.468 11.867 78.468 12.1358V23.9368Z" fill="white"/>
<path d="M98.5537 8.52679V27.5502H109.105V24.2408H101.82V19.2129H107.544V15.9079H101.82V11.8582H109.105V8.52679H98.5537Z" fill="white"/>
<path d="M84.7921 8.52679V27.5502H88.0542V19.2129H91.2032C91.6773 19.2305 92.0209 19.5654 92.0513 20.0457V27.5502H95.3395V19.7461V19.7549C95.3221 18.8163 94.8915 18.0671 94.1564 17.578C94.8958 17.0845 95.3221 16.3397 95.3351 15.4011V15.4232L95.3395 11.9551C95.3395 10.0691 93.8259 8.5312 91.9643 8.5312H84.7921V8.52679ZM92.0513 14.9296C92.0339 15.6479 91.525 15.9079 91.0509 15.9079C90.0767 15.9079 88.2978 15.9079 88.0542 15.9079V11.8582H91.7729C91.9513 11.8582 92.0513 12.0521 92.0513 12.1931V14.9296Z" fill="white"/>
</g>
<defs>
<linearGradient id="paint0_linear_1_1336" x1="13.2537" y1="3.26214" x2="13.2537" y2="60.6771" gradientUnits="userSpaceOnUse">
<stop offset="0.17" stop-color="#FAA61A"/>
<stop offset="0.5" stop-color="#F7941D"/>
<stop offset="0.73" stop-color="#F47920"/>
<stop offset="1" stop-color="#F26522"/>
</linearGradient>
<linearGradient id="paint1_linear_1_1336" x1="7.9451" y1="3.22142" x2="7.9451" y2="60.6605" gradientUnits="userSpaceOnUse">
<stop offset="0.17" stop-color="#FAA61A"/>
<stop offset="0.5" stop-color="#F7941D"/>
<stop offset="0.73" stop-color="#F47920"/>
<stop offset="1" stop-color="#F26522"/>
</linearGradient>
<linearGradient id="paint2_linear_1_1336" x1="38.0903" y1="337.636" x2="38.0903" y2="60.703" gradientUnits="userSpaceOnUse">
<stop offset="0.17" stop-color="#FAA61A"/>
<stop offset="0.5" stop-color="#F7941D"/>
<stop offset="0.73" stop-color="#F47920"/>
<stop offset="1" stop-color="#F26522"/>
</linearGradient>
<linearGradient id="paint3_linear_1_1336" x1="35.5311" y1="0" x2="35.5311" y2="58" gradientUnits="userSpaceOnUse">
<stop offset="0.17" stop-color="#F6AB00"/>
<stop offset="0.5" stop-color="#F39800"/>
<stop offset="0.73" stop-color="#EE7800"/>
<stop offset="1" stop-color="#EB6100"/>
</linearGradient>
<linearGradient id="paint4_linear_1_1336" x1="43.397" y1="3.22143" x2="43.397" y2="60.6605" gradientUnits="userSpaceOnUse">
<stop offset="0.17" stop-color="#FAA61A"/>
<stop offset="0.5" stop-color="#F7941D"/>
<stop offset="0.73" stop-color="#F47920"/>
<stop offset="1" stop-color="#F26522"/>
</linearGradient>
<clipPath id="clip0_1_1336">
<rect width="177" height="58" fill="white"/>
</clipPath>
</defs>
</svg>
