<svg width="24" height="19" viewBox="0 0 24 19" fill="none" xmlns="http://www.w3.org/2000/svg">
<path d="M3.99989 3.16667L19.9999 15.8333M16.4999 13.2651C15.1473 13.8419 13.6185 14.2499 11.9999 14.2499C8.46924 14.2499 5.36624 12.3087 3.5868 10.9082C3.1171 10.5386 2.88229 10.3537 2.7328 9.99093C2.62619 9.73219 2.62616 9.2677 2.7328 9.00897C2.88233 8.64617 3.11763 8.46091 3.58827 8.09057C4.48515 7.38484 5.71801 6.54202 7.17219 5.87952M19.4999 11.5848C19.8329 11.3529 20.138 11.1248 20.4117 10.9094L20.4146 10.907C20.8832 10.5382 21.1182 10.3533 21.2674 9.99132C21.374 9.73258 21.3738 9.26792 21.2672 9.00917C21.1178 8.64648 20.8827 8.46114 20.4133 8.09172C18.6338 6.69124 15.5305 4.75001 11.9999 4.75001C11.6624 4.75001 11.3288 4.76774 10.9999 4.80105M13.3228 10.6875C12.9702 10.9339 12.5071 11.0833 11.9999 11.0833C10.8953 11.0833 9.99989 10.3745 9.99989 9.5C9.99989 9.0729 10.2135 8.68544 10.5608 8.40064" stroke="black" stroke-width="2" stroke-linecap="round" stroke-linejoin="round"/>
</svg>
