<svg width="24" height="19" viewBox="0 0 24 19" fill="none" xmlns="http://www.w3.org/2000/svg">
<path d="M3.5868 10.9082C5.36623 12.3087 8.46953 14.2499 12.0002 14.2499C15.5308 14.2499 18.6335 12.3087 20.413 10.9082C20.8823 10.5389 21.1177 10.3536 21.2671 9.99093C21.3738 9.73218 21.3738 9.26783 21.2671 9.00909C21.1177 8.64643 20.8823 8.4611 20.413 8.09171C18.6335 6.69123 15.5308 4.75 12.0002 4.75C8.46953 4.75 5.36623 6.69123 3.5868 8.09171C3.11714 8.46135 2.88229 8.6463 2.7328 9.00909C2.62618 9.26783 2.62618 9.73218 2.7328 9.99093C2.88229 10.3537 3.11714 10.5386 3.5868 10.9082Z" stroke="black" stroke-width="2" stroke-linecap="round" stroke-linejoin="round"/>
<path d="M10 9.5C10 10.3745 10.8954 11.0833 12 11.0833C13.1046 11.0833 14 10.3745 14 9.5C14 8.62555 13.1046 7.91667 12 7.91667C10.8954 7.91667 10 8.62555 10 9.5Z" stroke="black" stroke-width="2" stroke-linecap="round" stroke-linejoin="round"/>
</svg>
