<svg width="90" height="90" viewBox="0 0 90 90" fill="none" xmlns="http://www.w3.org/2000/svg">
<rect width="90" height="90" rx="16" fill="white"/>
<path d="M22.1484 73.4736C22.1484 70.4268 22.1045 67.1016 22.0166 63.498C21.9287 59.8652 21.8701 57.4775 21.8408 56.335C21.6064 48.7178 21.4893 42.9902 21.4893 39.1523C21.4893 33.498 21.6357 28.6641 21.9287 24.6504L16.084 23.7275C15.7031 22.1455 15.4395 20.8125 15.293 19.7285C15.1172 18.6445 15.0293 17.458 15.0293 16.1689V15.1582C15.6445 14.3965 16.626 13.6055 17.9736 12.7852C19.3506 11.9648 20.9473 11.2764 22.7637 10.7197C24.6094 10.1631 26.4697 9.88477 28.3447 9.88477C31.8018 9.88477 34.5557 10.6025 36.6064 12.0381C38.6572 13.4736 39.6826 15.7148 39.6826 18.7617C39.6826 25.1484 39.3311 35.8125 38.6279 50.7539L41.3525 50.1387C43.1982 46.8281 45.249 42.4775 47.5049 37.0869C49.79 31.6963 51.2842 27.5215 51.9873 24.5625L46.5381 23.6396C46.1572 22.0576 45.8789 20.7246 45.7031 19.6406C45.5566 18.5566 45.4834 17.3701 45.4834 16.0811V15.0703C46.0693 14.3379 47.1094 13.5615 48.6035 12.7412C50.127 11.8916 51.8701 11.1885 53.833 10.6318C55.7959 10.0752 57.7295 9.79688 59.6338 9.79688C61.7139 9.79688 63.6035 10.1484 65.3027 10.8516C67.002 11.5547 68.3496 12.6387 69.3457 14.1035C70.3711 15.5684 70.8838 17.3701 70.8838 19.5088C70.8838 23.2002 69.3164 27.6387 66.1816 32.8242C63.0762 38.0098 59.3408 43.21 54.9756 48.4248C56.4111 51.4131 57.9492 54.2256 59.5898 56.8623C61.2305 59.499 62.6807 61.4912 63.9404 62.8389C64.585 62.5166 65.1855 62.0918 65.7422 61.5645C66.3281 61.0371 67.0752 60.2754 67.9834 59.2793L68.9502 58.2686L74.3555 62.3555V63.3223C74.3555 67.9805 73.1836 71.7305 70.8398 74.5723C68.5254 77.4141 65.0098 78.835 60.293 78.835C58.5352 78.835 56.8652 78.5859 55.2832 78.0879C53.0859 77.4141 51.1816 76.0811 49.5703 74.0889C47.9883 72.0967 46.7285 69.7969 45.791 67.1895C44.8828 64.5527 44.2529 61.8428 43.9014 59.0596C42.4365 59.4111 40.5176 59.6602 38.1445 59.8066C37.8809 64.8164 37.5439 70.5439 37.1338 76.9893C34.7607 78.2783 32.124 78.9229 29.2236 78.9229C26.7041 78.9229 24.3311 78.4688 22.1045 77.5605L22.1484 73.4736Z" fill="#FF9900"/>
</svg>
